<svg xmlns="http://www.w3.org/2000/svg" viewBox="0 0 500 500"><defs><style>.cls-1{fill:none;stroke:#000;stroke-miterlimit:10;stroke-width:10px;}</style></defs><title>run</title><g id="Layer_2" data-name="Layer 2"><g id="Layer_1-2" data-name="Layer 1"><path d="M73.2,426.8A250,250,0,0,1,426.8,73.2,250,250,0,0,1,73.2,426.8ZM10,250c0,132.3,107.7,240,240,240S490,382.3,490,250,382.3,10,250,10,10,117.7,10,250Z"/><path class="cls-1" d="M202,323.6a21.69,21.69,0,0,1-11.1-19.1V195.6A22,22,0,0,1,202,176.5a21.25,21.25,0,0,1,21.9.1L318,231a22,22,0,0,1,.1,38.1L224,323.5a22,22,0,0,1-11,3A23.19,23.19,0,0,1,202,323.6Z"/></g></g></svg>